<svg width="205" height="60" viewBox="0 0 205 60" fill="none" xmlns="http://www.w3.org/2000/svg">
<path d="M6.19702 34.5815H11.1018V37.3063H6.19702V34.5815Z" fill="#26292F"/>
<path d="M8.64943 33.1282L11.1018 34.5815H6.19702L8.64943 33.1282Z" fill="#26292F"/>
<path d="M8.6494 38.7596L6.19699 37.304H11.1018L8.6494 38.7596Z" fill="#26292F"/>
<path d="M11.2441 35.9646L13.1399 34.8701L13.7479 35.9232L11.8522 37.0177L11.2441 35.9646Z" fill="#26292F"/>
<path d="M11.8678 34.8557L13.1399 34.8701L11.2442 35.9646L11.8678 34.8557Z" fill="#26292F"/>
<path d="M13.1244 37.0321L11.8514 37.0162L13.7471 35.9217L13.1244 37.0321Z" fill="#26292F"/>
<path d="M7.45361 40.5882H11.6616V42.926H7.45361V40.5882Z" fill="#26292F"/>
<path d="M9.5576 39.3413L11.6616 40.5882H7.45361L9.5576 39.3413Z" fill="#26292F"/>
<path d="M9.55788 44.1729L7.4539 42.9247H11.6619L9.55788 44.1729Z" fill="#26292F"/>
<path d="M12.3062 40.8358L13.9325 41.7748L13.4109 42.6783L11.7845 41.7393L12.3062 40.8358Z" fill="#26292F"/>
<path d="M13.3974 40.8236L13.9324 41.7749L12.306 40.8359L13.3974 40.8236Z" fill="#26292F"/>
<path d="M12.3194 42.6908L11.7857 41.7371L13.4121 42.6761L12.3194 42.6908Z" fill="#26292F"/>
<path d="M5.70483 40.8358L7.33123 41.7748L6.80959 42.6783L5.1832 41.7393L5.70483 40.8358Z" fill="#26292F"/>
<path d="M6.79635 40.8236L7.33134 41.7749L5.70494 40.8359L6.79635 40.8236Z" fill="#26292F"/>
<path d="M5.7183 42.6908L5.18467 41.7371L6.81107 42.6761L5.7183 42.6908Z" fill="#26292F"/>
<path d="M7.84302 45.8781H11.6355V47.9854H7.84302V45.8781Z" fill="#26292F"/>
<path d="M9.73936 44.7544L11.6355 45.8781H7.84302L9.73936 44.7544Z" fill="#26292F"/>
<path d="M9.73915 49.1089L7.84299 47.9839H11.6355L9.73915 49.1089Z" fill="#26292F"/>
<path d="M12.2166 46.1016L13.6823 46.9478L13.2122 47.7621L11.7464 46.9159L12.2166 46.1016Z" fill="#26292F"/>
<path d="M13.2002 46.0904L13.6823 46.9479L12.2165 46.1016L13.2002 46.0904Z" fill="#26292F"/>
<path d="M12.2285 47.7733L11.747 46.9149L13.2128 47.7612L12.2285 47.7733Z" fill="#26292F"/>
<path d="M7.72485 50.5119H11.0274V52.3467H7.72485V50.5119Z" fill="#26292F"/>
<path d="M9.37614 49.5335L11.0274 50.5121H7.72485L9.37614 49.5335Z" fill="#26292F"/>
<path d="M9.37606 53.3253L7.72477 52.3456H11.0273L9.37606 53.3253Z" fill="#26292F"/>
<path d="M11.5327 50.7063L12.8091 51.4432L12.3997 52.1523L11.1233 51.4153L11.5327 50.7063Z" fill="#26292F"/>
<path d="M12.3892 50.6966L12.8093 51.4425L11.533 50.7056L12.3892 50.6966Z" fill="#26292F"/>
<path d="M11.5431 52.162L11.1243 51.4138L12.4007 52.1507L11.5431 52.162Z" fill="#26292F"/>
<path d="M7.24585 54.5815H10.0527V56.1408H7.24585V54.5815Z" fill="#26292F"/>
<path d="M8.64935 53.7498L10.0529 54.5815H7.24585L8.64935 53.7498Z" fill="#26292F"/>
<path d="M8.64923 56.9725L7.24573 56.1385H10.0527L8.64923 56.9725Z" fill="#26292F"/>
<path d="M10.4824 54.7466L11.5679 55.3733L11.22 55.976L10.1345 55.3493L10.4824 54.7466Z" fill="#26292F"/>
<path d="M11.2104 54.7384L11.5679 55.3734L10.4824 54.7466L11.2104 54.7384Z" fill="#26292F"/>
<path d="M10.4912 55.9839L10.1343 55.348L11.2198 55.9747L10.4912 55.9839Z" fill="#26292F"/>
<path d="M6.60767 58.0688H8.87478V59.3282H6.60767V58.0688Z" fill="#26292F"/>
<path d="M7.74122 57.3972L8.87478 58.0693H6.60767L7.74122 57.3972Z" fill="#26292F"/>
<path d="M7.74095 60L6.6074 59.3268H8.87451L7.74095 60Z" fill="#26292F"/>
<path d="M9.22168 58.2023L10.098 58.7082L9.81694 59.195L8.94065 58.6891L9.22168 58.2023Z" fill="#26292F"/>
<path d="M9.80972 58.1956L10.098 58.7082L9.22171 58.2023L9.80972 58.1956Z" fill="#26292F"/>
<path d="M9.22885 59.2015L8.9414 58.6875L9.81768 59.1935L9.22885 59.2015Z" fill="#26292F"/>
<path d="M5.66553 58.2023L6.54181 58.7082L6.26078 59.195L5.3845 58.6891L5.66553 58.2023Z" fill="#26292F"/>
<path d="M6.25357 58.1956L6.54184 58.7082L5.66556 58.2023L6.25357 58.1956Z" fill="#26292F"/>
<path d="M5.6727 59.2015L5.38524 58.6875L6.26153 59.1935L5.6727 59.2015Z" fill="#26292F"/>
<path d="M6.07959 54.7466L7.16511 55.3733L6.81714 55.976L5.73162 55.3493L6.07959 54.7466Z" fill="#26292F"/>
<path d="M6.80758 54.7384L7.16509 55.3734L6.07957 54.7466L6.80758 54.7384Z" fill="#26292F"/>
<path d="M6.08866 55.9839L5.73169 55.348L6.81721 55.9747L6.08866 55.9839Z" fill="#26292F"/>
<path d="M6.35181 50.7063L7.62816 51.4432L7.21879 52.1523L5.94244 51.4153L6.35181 50.7063Z" fill="#26292F"/>
<path d="M7.20832 50.6966L7.62843 51.4425L6.35208 50.7056L7.20832 50.6966Z" fill="#26292F"/>
<path d="M6.36248 52.162L5.94364 51.4138L7.22 52.1507L6.36248 52.162Z" fill="#26292F"/>
<path d="M6.26709 46.1016L7.73286 46.9478L7.26272 47.7621L5.79695 46.9159L6.26709 46.1016Z" fill="#26292F"/>
<path d="M7.25079 46.0904L7.73281 46.9479L6.26704 46.1016L7.25079 46.0904Z" fill="#26292F"/>
<path d="M6.279 47.7733L5.79752 46.9149L7.26329 47.7612L6.279 47.7733Z" fill="#26292F"/>
<path d="M3.55078 35.9646L5.44651 34.8701L6.05453 35.9232L4.1588 37.0177L3.55078 35.9646Z" fill="#26292F"/>
<path d="M4.17443 34.8557L5.44656 34.8701L3.55083 35.9646L4.17443 34.8557Z" fill="#26292F"/>
<path d="M5.43104 37.0321L4.15801 37.0162L6.05374 35.9217L5.43104 37.0321Z" fill="#26292F"/>
<path d="M4.41138 28.4861H9.86117V31.5136H4.41138V28.4861Z" fill="#26292F"/>
<path d="M7.13627 26.8715L9.86117 28.4861H4.41138L7.13627 26.8715Z" fill="#26292F"/>
<path d="M7.13619 33.1284L4.41129 31.5116H9.86108L7.13619 33.1284Z" fill="#26292F"/>
<path d="M10.6951 28.8067L12.8013 30.0227L12.1257 31.1929L10.0195 29.9768L10.6951 28.8067Z" fill="#26292F"/>
<path d="M12.1085 28.7907L12.8013 30.0228L10.6951 28.8068L12.1085 28.7907Z" fill="#26292F"/>
<path d="M10.7123 31.2089L10.0204 29.9753L12.1266 31.1913L10.7123 31.2089Z" fill="#26292F"/>
<path d="M2.14648 28.8067L4.25271 30.0227L3.57712 31.1929L1.47089 29.9768L2.14648 28.8067Z" fill="#26292F"/>
<path d="M3.55995 28.7907L4.25274 30.0228L2.14651 28.8068L3.55995 28.7907Z" fill="#26292F"/>
<path d="M2.16368 31.2089L1.4718 29.9753L3.57803 31.1913L2.16368 31.2089Z" fill="#26292F"/>
<path d="M8.01367 25.4185H3.10886V22.6937H8.01367V25.4185Z" fill="#26292F"/>
<path d="M5.56126 26.8718L3.10886 25.4185H8.01367L5.56126 26.8718Z" fill="#26292F"/>
<path d="M5.56129 21.2404L8.0137 22.696H3.10889L5.56129 21.2404Z" fill="#26292F"/>
<path d="M2.96631 24.0354L1.07058 25.1299L0.462563 24.0768L2.35829 22.9823L2.96631 24.0354Z" fill="#26292F"/>
<path d="M2.34266 25.1443L1.07053 25.1299L2.96626 24.0354L2.34266 25.1443Z" fill="#26292F"/>
<path d="M1.08605 22.9679L2.35908 22.9838L0.463355 24.0783L1.08605 22.9679Z" fill="#26292F"/>
<path d="M6.75684 19.4118H2.54887V17.074H6.75684V19.4118Z" fill="#26292F"/>
<path d="M4.65285 20.6587L2.54887 19.4118H6.75684L4.65285 20.6587Z" fill="#26292F"/>
<path d="M4.65281 15.8273L6.7568 17.0755H2.54883L4.65281 15.8273Z" fill="#26292F"/>
<path d="M1.90454 19.1642L0.278146 18.2252L0.799782 17.3217L2.42618 18.2607L1.90454 19.1642Z" fill="#26292F"/>
<path d="M0.813267 19.1766L0.278282 18.2252L1.90468 19.1642L0.813267 19.1766Z" fill="#26292F"/>
<path d="M1.89132 17.3092L2.42495 18.2629L0.798551 17.3239L1.89132 17.3092Z" fill="#26292F"/>
<path d="M8.50562 19.1642L6.87922 18.2252L7.40086 17.3217L9.02725 18.2607L8.50562 19.1642Z" fill="#26292F"/>
<path d="M7.41434 19.1766L6.87936 18.2252L8.50575 19.1642L7.41434 19.1766Z" fill="#26292F"/>
<path d="M8.4924 17.3092L9.02602 18.2629L7.39962 17.3239L8.4924 17.3092Z" fill="#26292F"/>
<path d="M6.36743 14.1219H2.57492L2.57492 12.0146H6.36743V14.1219Z" fill="#26292F"/>
<path d="M4.47109 15.2456L2.57492 14.1219H6.36743L4.47109 15.2456Z" fill="#26292F"/>
<path d="M4.4713 10.8911L6.36746 12.0161H2.57495L4.4713 10.8911Z" fill="#26292F"/>
<path d="M1.99438 13.8984L0.528616 13.0521L0.998751 12.2378L2.46452 13.0841L1.99438 13.8984Z" fill="#26292F"/>
<path d="M1.01045 13.9096L0.528421 13.0521L1.99419 13.8984L1.01045 13.9096Z" fill="#26292F"/>
<path d="M1.98223 12.2267L2.46371 13.0851L0.997941 12.2388L1.98223 12.2267Z" fill="#26292F"/>
<path d="M6.48584 9.48807H3.18326L3.18326 7.65331H6.48584V9.48807Z" fill="#26292F"/>
<path d="M4.83455 10.4665L3.18326 9.48789H6.48584L4.83455 10.4665Z" fill="#26292F"/>
<path d="M4.83464 6.67471L6.48592 7.6544H3.18335L4.83464 6.67471Z" fill="#26292F"/>
<path d="M2.67773 9.2937L1.40138 8.5568L1.81075 7.84775L3.0871 8.58465L2.67773 9.2937Z" fill="#26292F"/>
<path d="M1.82122 9.30344L1.40111 8.55746L2.67746 9.29436L1.82122 9.30344Z" fill="#26292F"/>
<path d="M2.66731 7.83798L3.08614 8.58616L1.80979 7.84926L2.66731 7.83798Z" fill="#26292F"/>
<path d="M6.9646 5.41855H4.15777V3.85918L6.9646 3.85918V5.41855Z" fill="#26292F"/>
<path d="M5.5611 6.25018L4.15759 5.41855H6.9646L5.5611 6.25018Z" fill="#26292F"/>
<path d="M5.56146 3.02753L6.96497 3.86153H4.15796L5.56146 3.02753Z" fill="#26292F"/>
<path d="M3.72803 5.25342L2.64251 4.62669L2.99047 4.02399L4.076 4.65072L3.72803 5.25342Z" fill="#26292F"/>
<path d="M3.00003 5.26159L2.64252 4.62663L3.72805 5.25336L3.00003 5.26159Z" fill="#26292F"/>
<path d="M3.7192 4.01612L4.07617 4.65202L2.99065 4.02529L3.7192 4.01612Z" fill="#26292F"/>
<path d="M7.60303 1.93121L5.33591 1.93121V0.671767L7.60303 0.671767V1.93121Z" fill="#26292F"/>
<path d="M6.46947 2.60281L5.33591 1.93067L7.60303 1.93067L6.46947 2.60281Z" fill="#26292F"/>
<path d="M6.46949 0L7.60305 0.673231H5.33594L6.46949 0Z" fill="#26292F"/>
<path d="M4.98901 1.7977L4.11273 1.29178L4.39376 0.805023L5.27004 1.31095L4.98901 1.7977Z" fill="#26292F"/>
<path d="M4.40097 1.80435L4.1127 1.29181L4.98898 1.79773L4.40097 1.80435Z" fill="#26292F"/>
<path d="M4.98184 0.798493L5.2693 1.31245L4.39301 0.806529L4.98184 0.798493Z" fill="#26292F"/>
<path d="M8.54541 1.7977L7.66913 1.29178L7.95015 0.805023L8.82644 1.31095L8.54541 1.7977Z" fill="#26292F"/>
<path d="M7.95712 1.80435L7.66885 1.29181L8.54513 1.79773L7.95712 1.80435Z" fill="#26292F"/>
<path d="M8.538 0.798493L8.82545 1.31245L7.94917 0.806529L8.538 0.798493Z" fill="#26292F"/>
<path d="M8.1311 5.25342L7.04558 4.62669L7.39355 4.02399L8.47907 4.65072L8.1311 5.25342Z" fill="#26292F"/>
<path d="M7.40311 5.26159L7.0456 4.62663L8.13112 5.25336L7.40311 5.26159Z" fill="#26292F"/>
<path d="M8.12228 4.01612L8.47925 4.65202L7.39372 4.02529L8.12228 4.01612Z" fill="#26292F"/>
<path d="M7.85864 9.2937L6.58229 8.5568L6.99166 7.84775L8.26801 8.58465L7.85864 9.2937Z" fill="#26292F"/>
<path d="M7.00213 9.30344L6.58202 8.55746L7.85837 9.29436L7.00213 9.30344Z" fill="#26292F"/>
<path d="M7.84797 7.83798L8.26681 8.58616L6.99045 7.84926L7.84797 7.83798Z" fill="#26292F"/>
<path d="M7.9436 13.8984L6.47783 13.0521L6.94797 12.2378L8.41374 13.0841L7.9436 13.8984Z" fill="#26292F"/>
<path d="M6.95991 13.9096L6.47788 13.0521L7.94365 13.8984L6.95991 13.9096Z" fill="#26292F"/>
<path d="M7.93169 12.2267L8.41317 13.0851L6.9474 12.2388L7.93169 12.2267Z" fill="#26292F"/>
<path d="M10.6602 24.0354L8.76443 25.1299L8.15641 24.0768L10.0521 22.9823L10.6602 24.0354Z" fill="#26292F"/>
<path d="M10.0365 25.1443L8.76438 25.1299L10.6601 24.0354L10.0365 25.1443Z" fill="#26292F"/>
<path d="M8.77965 22.9679L10.0527 22.9838L8.15696 24.0783L8.77965 22.9679Z" fill="#26292F"/>
<path d="M55.892 32.28C53.8947 32.28 52.1493 31.8507 50.656 30.992C49.1813 30.1333 48.0427 28.9107 47.24 27.324C46.4373 25.7187 46.036 23.8333 46.036 21.668C46.036 19.484 46.4467 17.5893 47.268 15.984C48.0893 14.3787 49.2373 13.1373 50.712 12.26C52.1867 11.3827 53.9133 10.944 55.892 10.944C57.8893 10.944 59.616 11.3827 61.072 12.26C62.5467 13.1373 63.6853 14.3787 64.488 15.984C65.3093 17.5893 65.72 19.484 65.72 21.668C65.72 23.8333 65.3187 25.7093 64.516 27.296C63.7133 28.8827 62.5747 30.1147 61.1 30.992C59.6253 31.8507 57.8893 32.28 55.892 32.28ZM55.92 28.36C57.2827 28.36 58.2627 27.8467 58.86 26.82C59.476 25.7933 59.784 24.104 59.784 21.752C59.784 19.3067 59.476 17.5427 58.86 16.46C58.244 15.3773 57.2547 14.836 55.892 14.836C54.5293 14.836 53.5307 15.3773 52.896 16.46C52.28 17.5427 51.972 19.3067 51.972 21.752C51.972 24.104 52.28 25.7933 52.896 26.82C53.512 27.8467 54.52 28.36 55.92 28.36ZM77.0482 21.22C76.7495 20.8653 76.3575 20.548 75.8722 20.268C75.3869 19.9693 74.7709 19.82 74.0242 19.82C73.4455 19.82 72.9509 19.932 72.5402 20.156C72.1295 20.3613 71.9242 20.6693 71.9242 21.08C71.9242 21.248 71.9989 21.4253 72.1482 21.612C72.2975 21.78 72.6615 21.9293 73.2402 22.06L76.3202 22.76C77.9815 23.1147 79.1482 23.712 79.8202 24.552C80.4922 25.392 80.8282 26.3347 80.8282 27.38C80.8282 28.4067 80.5389 29.2933 79.9602 30.04C79.3815 30.768 78.5695 31.328 77.5242 31.72C76.4975 32.0933 75.3029 32.28 73.9402 32.28C72.2042 32.28 70.7482 31.9813 69.5722 31.384C68.3962 30.7867 67.5749 30.068 67.1082 29.228C67.0335 29.0787 66.9962 28.9387 66.9962 28.808C66.9962 28.6587 67.0522 28.5467 67.1642 28.472L69.3482 27.352C69.5722 27.2587 69.7402 27.2213 69.8522 27.24C69.9642 27.2587 70.0575 27.3147 70.1322 27.408C70.3749 27.7067 70.6455 27.996 70.9442 28.276C71.2429 28.5373 71.6349 28.7613 72.1202 28.948C72.6055 29.116 73.2215 29.1907 73.9682 29.172C74.4162 29.1533 74.8269 29.0973 75.2002 29.004C75.5735 28.9107 75.8629 28.7707 76.0682 28.584C76.2922 28.3973 76.4042 28.164 76.4042 27.884C76.4042 27.6413 76.3015 27.4267 76.0962 27.24C75.8909 27.0533 75.4709 26.8947 74.8362 26.764L71.9802 26.204C70.5615 25.924 69.4695 25.4293 68.7042 24.72C67.9575 24.0107 67.5749 23.0587 67.5562 21.864C67.5562 20.912 67.8082 20.0627 68.3122 19.316C68.8162 18.5507 69.5535 17.9533 70.5242 17.524C71.5135 17.0947 72.6989 16.88 74.0802 16.88C75.5549 16.88 76.8149 17.1507 77.8602 17.692C78.9242 18.2147 79.6709 18.8307 80.1002 19.54C80.1935 19.6707 80.2589 19.8107 80.2962 19.96C80.3522 20.1093 80.2869 20.2213 80.1002 20.296L77.8042 21.416C77.6362 21.4907 77.4962 21.5093 77.3842 21.472C77.2722 21.4347 77.1602 21.3507 77.0482 21.22ZM89.329 20.548C89.105 20.548 88.993 20.66 88.993 20.884V26.932C88.993 27.492 89.1424 27.9027 89.441 28.164C89.7584 28.4253 90.253 28.556 90.925 28.556H92.269C92.3997 28.556 92.5024 28.612 92.577 28.724C92.6704 28.8173 92.717 28.9293 92.717 29.06L92.689 31.076C92.689 31.468 92.4464 31.7107 91.961 31.804C91.6064 31.86 91.2237 31.9067 90.813 31.944C90.4024 31.9627 89.9917 31.9813 89.581 32C89.189 32 88.797 32 88.405 32C87.0984 32 86.0344 31.692 85.213 31.076C84.4104 30.4413 84.009 29.5267 84.009 28.332V21.024C84.009 20.7067 83.8784 20.548 83.617 20.548H82.105C81.6944 20.548 81.489 20.3613 81.489 19.988V17.636C81.489 17.3187 81.6757 17.16 82.049 17.16H83.841C84.0277 17.16 84.1304 17.0573 84.149 16.852L84.569 12.652C84.6064 12.2973 84.765 12.12 85.045 12.12H88.629C88.965 12.12 89.133 12.3067 89.133 12.68V16.852C89.133 17.0387 89.2264 17.132 89.413 17.132H92.185C92.5584 17.132 92.745 17.2907 92.745 17.608V19.988C92.745 20.3613 92.5304 20.548 92.101 20.548H89.329ZM98.8403 25.952C98.8403 26.5867 98.9803 27.128 99.2603 27.576C99.5589 28.024 99.9509 28.3693 100.436 28.612C100.94 28.836 101.5 28.948 102.116 28.948C102.676 28.948 103.218 28.8267 103.74 28.584C104.263 28.3227 104.823 27.8747 105.42 27.24C105.495 27.1653 105.56 27.128 105.616 27.128C105.672 27.1093 105.784 27.128 105.952 27.184L108.248 28.136C108.547 28.2667 108.584 28.472 108.36 28.752C107.707 29.6667 107.044 30.3853 106.372 30.908C105.719 31.412 104.991 31.7667 104.188 31.972C103.386 32.1773 102.471 32.28 101.444 32.28C99.9883 32.28 98.6723 31.9627 97.4963 31.328C96.3203 30.6933 95.3963 29.816 94.7243 28.696C94.0523 27.576 93.7163 26.2787 93.7163 24.804C93.7163 23.2173 94.0616 21.8267 94.7523 20.632C95.4616 19.4373 96.3949 18.5133 97.5523 17.86C98.7283 17.2067 99.9976 16.88 101.36 16.88C102.816 16.88 104.095 17.1973 105.196 17.832C106.316 18.448 107.194 19.344 107.828 20.52C108.482 21.696 108.808 23.124 108.808 24.804C108.808 25.028 108.78 25.196 108.724 25.308C108.687 25.42 108.556 25.4853 108.332 25.504H99.2323C99.1203 25.504 99.0269 25.5413 98.9523 25.616C98.8776 25.6907 98.8403 25.8027 98.8403 25.952ZM103.488 22.872C103.675 22.872 103.796 22.8533 103.852 22.816C103.927 22.76 103.964 22.648 103.964 22.48C103.964 22.1253 103.88 21.752 103.712 21.36C103.544 20.9493 103.283 20.5947 102.928 20.296C102.574 19.9973 102.126 19.848 101.584 19.848C101.08 19.848 100.623 19.9693 100.212 20.212C99.8016 20.436 99.4843 20.772 99.2603 21.22C99.0363 21.668 98.9243 22.2093 98.9243 22.844L103.488 22.872ZM105.476 13.324C105.607 13.7533 105.439 14.0333 104.972 14.164L98.4763 15.788C98.2523 15.844 98.0843 15.844 97.9723 15.788C97.8789 15.732 97.8043 15.62 97.7483 15.452L97.3563 14.36C97.2443 14.0613 97.3096 13.856 97.5523 13.744L104.244 11.028C104.487 10.9347 104.664 11.0373 104.776 11.336L105.476 13.324ZM117.821 32.28C116.309 32.28 114.975 31.9533 113.817 31.3C112.679 30.6467 111.783 29.7507 111.129 28.612C110.495 27.4547 110.177 26.1387 110.177 24.664C110.177 23.096 110.513 21.7333 111.185 20.576C111.857 19.4 112.772 18.4947 113.929 17.86C115.087 17.2067 116.393 16.88 117.849 16.88C119.38 16.88 120.715 17.216 121.853 17.888C123.011 18.56 123.907 19.484 124.541 20.66C125.195 21.8173 125.521 23.152 125.521 24.664C125.521 26.1387 125.195 27.4547 124.541 28.612C123.888 29.7507 122.983 30.6467 121.825 31.3C120.687 31.9533 119.352 32.28 117.821 32.28ZM117.849 29.032C118.447 29.032 118.941 28.8733 119.333 28.556C119.725 28.2387 120.015 27.744 120.201 27.072C120.388 26.4 120.481 25.56 120.481 24.552C120.481 23.5253 120.379 22.676 120.173 22.004C119.987 21.332 119.697 20.8373 119.305 20.52C118.932 20.184 118.447 20.016 117.849 20.016C117.271 20.016 116.776 20.184 116.365 20.52C115.973 20.8373 115.684 21.332 115.497 22.004C115.311 22.676 115.217 23.5253 115.217 24.552C115.217 25.5787 115.311 26.428 115.497 27.1C115.684 27.7533 115.973 28.2387 116.365 28.556C116.776 28.8733 117.271 29.032 117.849 29.032ZM131.922 17.16C132.352 17.16 132.566 17.3653 132.566 17.776V18.476C132.566 18.6067 132.613 18.672 132.706 18.672C132.8 18.672 132.893 18.6347 132.986 18.56C133.322 18.2427 133.677 17.9627 134.05 17.72C134.424 17.4587 134.844 17.2533 135.31 17.104C135.796 16.9547 136.356 16.88 136.99 16.88C138.054 16.88 139.006 17.16 139.846 17.72C140.686 18.2613 141.358 19.092 141.862 20.212C142.366 21.332 142.618 22.76 142.618 24.496C142.618 26.344 142.357 27.8467 141.834 29.004C141.312 30.1427 140.612 30.9733 139.734 31.496C138.857 32.0187 137.877 32.28 136.794 32.28C136.104 32.28 135.46 32.1773 134.862 31.972C134.284 31.748 133.705 31.3747 133.126 30.852C132.902 30.6653 132.753 30.5813 132.678 30.6C132.604 30.6 132.566 30.7307 132.566 30.992V36.088C132.566 36.4427 132.408 36.62 132.09 36.62H128.058C127.741 36.62 127.582 36.4333 127.582 36.06V17.832C127.582 17.608 127.629 17.44 127.722 17.328C127.816 17.216 128.002 17.16 128.282 17.16H131.922ZM132.566 27.94C132.865 28.332 133.192 28.64 133.546 28.864C133.92 29.088 134.358 29.2 134.862 29.2C135.422 29.2 135.898 29.0507 136.29 28.752C136.701 28.4533 137.018 27.9587 137.242 27.268C137.466 26.5587 137.578 25.588 137.578 24.356C137.578 23.2173 137.466 22.3307 137.242 21.696C137.037 21.0613 136.729 20.6133 136.318 20.352C135.926 20.0907 135.45 19.96 134.89 19.96C134.461 19.96 134.069 20.0533 133.714 20.24C133.36 20.408 133.08 20.632 132.874 20.912C132.669 21.192 132.566 21.5 132.566 21.836V27.94ZM152.538 30.712C151.997 31.16 151.381 31.5333 150.69 31.832C149.999 32.1307 149.206 32.28 148.31 32.28C146.891 32.28 145.781 31.8973 144.978 31.132C144.194 30.348 143.802 29.368 143.802 28.192C143.802 27.1093 144.138 26.1667 144.81 25.364C145.482 24.5613 146.443 23.936 147.694 23.488C148.945 23.04 150.429 22.8067 152.146 22.788L152.734 22.76C152.809 22.76 152.893 22.7413 152.986 22.704C153.098 22.648 153.154 22.536 153.154 22.368V21.836C153.154 21.22 152.986 20.744 152.65 20.408C152.314 20.072 151.819 19.904 151.166 19.904C150.681 19.904 150.205 20.016 149.738 20.24C149.29 20.4453 148.917 20.828 148.618 21.388C148.543 21.5187 148.469 21.612 148.394 21.668C148.319 21.7053 148.17 21.7053 147.946 21.668L144.67 20.996C144.558 20.9587 144.474 20.8933 144.418 20.8C144.362 20.7067 144.39 20.5013 144.502 20.184C144.969 19.0267 145.79 18.1867 146.966 17.664C148.142 17.1413 149.617 16.88 151.39 16.88C153.033 16.88 154.321 17.076 155.254 17.468C156.206 17.86 156.878 18.4013 157.27 19.092C157.681 19.7827 157.886 20.5947 157.886 21.528V31.3C157.886 31.5613 157.849 31.748 157.774 31.86C157.699 31.9533 157.541 32 157.298 32H153.938C153.714 32 153.555 31.916 153.462 31.748C153.369 31.5613 153.303 31.356 153.266 31.132L153.238 30.712C153.182 30.3573 152.949 30.3573 152.538 30.712ZM153.154 25.56C153.154 25.224 153.014 25.0653 152.734 25.084L152.286 25.112C151.95 25.112 151.567 25.168 151.138 25.28C150.727 25.3733 150.326 25.5227 149.934 25.728C149.561 25.9147 149.253 26.1573 149.01 26.456C148.767 26.7547 148.646 27.1093 148.646 27.52C148.646 28.0053 148.814 28.388 149.15 28.668C149.486 28.948 149.943 29.088 150.522 29.088C150.951 29.088 151.315 29.0227 151.614 28.892C151.931 28.7613 152.183 28.612 152.37 28.444C152.594 28.2573 152.781 28.0707 152.93 27.884C153.079 27.6787 153.154 27.4547 153.154 27.212V25.56ZM167.177 20.548C166.953 20.548 166.841 20.66 166.841 20.884V26.932C166.841 27.492 166.99 27.9027 167.289 28.164C167.606 28.4253 168.101 28.556 168.773 28.556H170.117C170.247 28.556 170.35 28.612 170.425 28.724C170.518 28.8173 170.565 28.9293 170.565 29.06L170.537 31.076C170.537 31.468 170.294 31.7107 169.809 31.804C169.454 31.86 169.071 31.9067 168.661 31.944C168.25 31.9627 167.839 31.9813 167.429 32C167.037 32 166.645 32 166.253 32C164.946 32 163.882 31.692 163.061 31.076C162.258 30.4413 161.857 29.5267 161.857 28.332V21.024C161.857 20.7067 161.726 20.548 161.465 20.548H159.953C159.542 20.548 159.337 20.3613 159.337 19.988V17.636C159.337 17.3187 159.523 17.16 159.897 17.16H161.689C161.875 17.16 161.978 17.0573 161.997 16.852L162.417 12.652C162.454 12.2973 162.613 12.12 162.893 12.12H166.477C166.813 12.12 166.981 12.3067 166.981 12.68V16.852C166.981 17.0387 167.074 17.132 167.261 17.132H170.033C170.406 17.132 170.593 17.2907 170.593 17.608V19.988C170.593 20.3613 170.378 20.548 169.949 20.548H167.177ZM173.371 32C172.942 32 172.727 31.7853 172.727 31.356V11.812C172.727 11.42 172.886 11.224 173.203 11.224H177.151C177.469 11.224 177.627 11.4013 177.627 11.756V18.84C177.627 18.952 177.655 19.0173 177.711 19.036C177.767 19.0547 177.851 19.0267 177.963 18.952C178.523 18.4293 179.055 18.0187 179.559 17.72C180.063 17.4213 180.558 17.2067 181.043 17.076C181.547 16.9453 182.061 16.88 182.583 16.88C183.983 16.88 185.066 17.2813 185.831 18.084C186.597 18.868 186.979 19.988 186.979 21.444V31.244C186.979 31.748 186.718 32 186.195 32H182.583C182.359 32 182.201 31.9533 182.107 31.86C182.033 31.7667 181.995 31.5987 181.995 31.356V22.06C181.995 21.5373 181.837 21.136 181.519 20.856C181.221 20.576 180.801 20.436 180.259 20.436C179.923 20.436 179.606 20.492 179.307 20.604C179.009 20.716 178.729 20.8933 178.467 21.136C178.225 21.36 177.973 21.6493 177.711 22.004V31.272C177.711 31.7573 177.431 32 176.871 32H173.371ZM194.024 25.952C194.024 26.5867 194.164 27.128 194.444 27.576C194.743 28.024 195.135 28.3693 195.62 28.612C196.124 28.836 196.684 28.948 197.3 28.948C197.86 28.948 198.401 28.8267 198.924 28.584C199.447 28.3227 200.007 27.8747 200.604 27.24C200.679 27.1653 200.744 27.128 200.8 27.128C200.856 27.1093 200.968 27.128 201.136 27.184L203.432 28.136C203.731 28.2667 203.768 28.472 203.544 28.752C202.891 29.6667 202.228 30.3853 201.556 30.908C200.903 31.412 200.175 31.7667 199.372 31.972C198.569 32.1773 197.655 32.28 196.628 32.28C195.172 32.28 193.856 31.9627 192.68 31.328C191.504 30.6933 190.58 29.816 189.908 28.696C189.236 27.576 188.9 26.2787 188.9 24.804C188.9 23.2173 189.245 21.8267 189.936 20.632C190.645 19.4373 191.579 18.5133 192.736 17.86C193.912 17.2067 195.181 16.88 196.544 16.88C198 16.88 199.279 17.1973 200.38 17.832C201.5 18.448 202.377 19.344 203.012 20.52C203.665 21.696 203.992 23.124 203.992 24.804C203.992 25.028 203.964 25.196 203.908 25.308C203.871 25.42 203.74 25.4853 203.516 25.504H194.416C194.304 25.504 194.211 25.5413 194.136 25.616C194.061 25.6907 194.024 25.8027 194.024 25.952ZM198.672 22.872C198.859 22.872 198.98 22.8533 199.036 22.816C199.111 22.76 199.148 22.648 199.148 22.48C199.148 22.1253 199.064 21.752 198.896 21.36C198.728 20.9493 198.467 20.5947 198.112 20.296C197.757 19.9973 197.309 19.848 196.768 19.848C196.264 19.848 195.807 19.9693 195.396 20.212C194.985 20.436 194.668 20.772 194.444 21.22C194.22 21.668 194.108 22.2093 194.108 22.844L198.672 22.872Z" fill="#26292F"/>
<path d="M52.632 44.688C52.632 45.28 52.496 45.768 52.224 46.152C51.952 46.536 51.58 46.82 51.108 47.004C50.636 47.188 50.088 47.28 49.464 47.28H47.424C47.352 47.28 47.316 47.316 47.316 47.388V50.82C47.316 50.94 47.256 51 47.136 51H46.32C46.264 51 46.224 50.988 46.2 50.964C46.176 50.94 46.164 50.9 46.164 50.844V42.264C46.164 42.152 46.212 42.096 46.308 42.096H49.332C49.964 42.096 50.528 42.184 51.024 42.36C51.52 42.536 51.912 42.816 52.2 43.2C52.488 43.584 52.632 44.08 52.632 44.688ZM51.456 44.652C51.456 44.244 51.364 43.916 51.18 43.668C51.004 43.42 50.752 43.244 50.424 43.14C50.104 43.028 49.72 42.972 49.272 42.972H47.472C47.368 42.972 47.316 43.02 47.316 43.116V46.236C47.316 46.348 47.352 46.404 47.424 46.404H49.356C49.988 46.404 50.496 46.264 50.88 45.984C51.264 45.704 51.456 45.26 51.456 44.652ZM55.2172 50.796C55.2172 50.876 55.2012 50.932 55.1692 50.964C55.1452 50.988 55.0892 51 55.0012 51H54.3892C54.3172 51 54.2692 50.988 54.2452 50.964C54.2212 50.94 54.2092 50.896 54.2092 50.832V44.808C54.2092 44.696 54.2572 44.64 54.3532 44.64H55.0852C55.1732 44.64 55.2172 44.692 55.2172 44.796V50.796ZM55.2652 43.272C55.2652 43.424 55.1932 43.5 55.0492 43.5H54.3532C54.2812 43.5 54.2332 43.484 54.2092 43.452C54.1852 43.412 54.1732 43.36 54.1732 43.296V42.288C54.1732 42.16 54.2292 42.096 54.3412 42.096H55.0972C55.2092 42.096 55.2652 42.156 55.2652 42.276V43.272ZM59.7203 44.52C60.1363 44.52 60.5003 44.588 60.8123 44.724C61.1323 44.852 61.4043 45.032 61.6283 45.264C61.8603 45.488 62.0523 45.736 62.2043 46.008C62.2523 46.104 62.2323 46.164 62.1443 46.188L61.4843 46.344C61.4283 46.368 61.3763 46.344 61.3283 46.272C61.1683 46.04 61.0083 45.852 60.8483 45.708C60.6963 45.564 60.5323 45.456 60.3563 45.384C60.1803 45.304 59.9883 45.264 59.7803 45.264C59.3723 45.264 59.0123 45.368 58.7003 45.576C58.3963 45.776 58.1603 46.068 57.9923 46.452C57.8243 46.836 57.7402 47.292 57.7402 47.82C57.7402 48.356 57.8243 48.816 57.9923 49.2C58.1683 49.584 58.4083 49.876 58.7123 50.076C59.0243 50.276 59.3883 50.376 59.8043 50.376C60.1883 50.376 60.5203 50.28 60.8003 50.088C61.0803 49.896 61.3363 49.616 61.5683 49.248C61.5923 49.208 61.6123 49.188 61.6283 49.188C61.6523 49.18 61.6843 49.184 61.7243 49.2L62.2403 49.392C62.2963 49.416 62.3123 49.468 62.2883 49.548C62.1683 49.756 62.0283 49.956 61.8683 50.148C61.7083 50.34 61.5203 50.508 61.3043 50.652C61.0963 50.796 60.8603 50.912 60.5963 51C60.3323 51.08 60.0403 51.12 59.7203 51.12C59.1283 51.12 58.6043 50.984 58.1483 50.712C57.7003 50.432 57.3483 50.048 57.0923 49.56C56.8363 49.064 56.7083 48.492 56.7083 47.844C56.7083 47.188 56.8363 46.612 57.0923 46.116C57.3563 45.62 57.7123 45.232 58.1603 44.952C58.6163 44.664 59.1363 44.52 59.7203 44.52ZM63.7522 51C63.6482 51 63.5962 50.948 63.5962 50.844V42.252C63.5962 42.148 63.6402 42.096 63.7282 42.096H64.4362C64.5242 42.096 64.5682 42.144 64.5682 42.24V45.444C64.5682 45.484 64.5762 45.508 64.5922 45.516C64.6082 45.524 64.6362 45.512 64.6762 45.48C64.9562 45.264 65.2122 45.084 65.4442 44.94C65.6842 44.796 65.9162 44.692 66.1402 44.628C66.3722 44.556 66.6242 44.52 66.8962 44.52C67.5202 44.52 67.9962 44.688 68.3242 45.024C68.6522 45.352 68.8162 45.792 68.8162 46.344V50.808C68.8162 50.936 68.7562 51 68.6362 51H67.9642C67.9082 51 67.8682 50.988 67.8442 50.964C67.8202 50.932 67.8082 50.892 67.8082 50.844V46.56C67.8082 46.168 67.7082 45.864 67.5082 45.648C67.3082 45.424 66.9922 45.312 66.5602 45.312C66.3282 45.312 66.1082 45.352 65.9002 45.432C65.7002 45.504 65.4962 45.612 65.2882 45.756C65.0802 45.892 64.8522 46.068 64.6042 46.284V50.82C64.6042 50.94 64.5402 51 64.4122 51H63.7522ZM74.252 50.232C73.956 50.52 73.632 50.74 73.28 50.892C72.936 51.044 72.548 51.12 72.116 51.12C71.492 51.12 71 50.96 70.64 50.64C70.288 50.32 70.112 49.9 70.112 49.38C70.112 48.956 70.232 48.592 70.472 48.288C70.712 47.976 71.068 47.732 71.54 47.556C72.012 47.372 72.592 47.26 73.28 47.22L74.216 47.148C74.264 47.14 74.308 47.124 74.348 47.1C74.388 47.076 74.408 47.032 74.408 46.968V46.644C74.408 46.212 74.272 45.872 74 45.624C73.736 45.368 73.376 45.24 72.92 45.24C72.568 45.24 72.248 45.32 71.96 45.48C71.68 45.64 71.428 45.88 71.204 46.2C71.172 46.24 71.144 46.268 71.12 46.284C71.104 46.292 71.072 46.288 71.024 46.272L70.376 46.056C70.352 46.04 70.332 46.02 70.316 45.996C70.308 45.972 70.32 45.928 70.352 45.864C70.592 45.448 70.928 45.12 71.36 44.88C71.8 44.64 72.336 44.52 72.968 44.52C73.504 44.52 73.948 44.604 74.3 44.772C74.66 44.932 74.928 45.168 75.104 45.48C75.288 45.784 75.38 46.148 75.38 46.572V50.82C75.38 50.892 75.368 50.94 75.344 50.964C75.32 50.988 75.28 51 75.224 51H74.612C74.556 51 74.516 50.984 74.492 50.952C74.468 50.912 74.452 50.864 74.444 50.808L74.432 50.256C74.408 50.144 74.348 50.136 74.252 50.232ZM74.408 47.952C74.408 47.816 74.352 47.752 74.24 47.76L73.448 47.832C73.08 47.848 72.752 47.896 72.464 47.976C72.176 48.048 71.932 48.144 71.732 48.264C71.532 48.384 71.38 48.528 71.276 48.696C71.172 48.856 71.12 49.044 71.12 49.26C71.12 49.612 71.24 49.888 71.48 50.088C71.728 50.28 72.06 50.376 72.476 50.376C72.732 50.376 72.976 50.332 73.208 50.244C73.448 50.148 73.656 50.028 73.832 49.884C74.016 49.732 74.156 49.576 74.252 49.416C74.356 49.256 74.408 49.1 74.408 48.948V47.952ZM79.3262 50.328C79.6702 50.328 79.9982 50.236 80.3102 50.052C80.6302 49.86 80.9462 49.604 81.2582 49.284V44.82C81.2582 44.7 81.3222 44.64 81.4502 44.64H82.1102C82.2222 44.64 82.2782 44.696 82.2782 44.808L82.2542 50.844C82.2542 50.948 82.2102 51 82.1222 51H81.4262C81.3382 51 81.2942 50.956 81.2942 50.868V50.16C81.2942 50.12 81.2862 50.096 81.2702 50.088C81.2542 50.08 81.2262 50.092 81.1862 50.124C80.7462 50.5 80.3542 50.76 80.0102 50.904C79.6742 51.048 79.3382 51.12 79.0022 51.12C78.6342 51.12 78.3062 51.044 78.0182 50.892C77.7302 50.74 77.5022 50.528 77.3342 50.256C77.1662 49.976 77.0822 49.652 77.0822 49.284V44.832C77.0822 44.704 77.1422 44.64 77.2622 44.64H77.9342C78.0382 44.64 78.0902 44.696 78.0902 44.808V49.02C78.0902 49.412 78.1982 49.728 78.4142 49.968C78.6382 50.208 78.9422 50.328 79.3262 50.328ZM85.1354 50.796C85.1354 50.876 85.1194 50.932 85.0874 50.964C85.0554 50.988 84.9994 51 84.9194 51H84.2954C84.1754 51 84.1154 50.944 84.1154 50.832L84.1274 42.264C84.1274 42.152 84.1754 42.096 84.2714 42.096H84.9914C85.0874 42.096 85.1354 42.148 85.1354 42.252V50.796ZM88.6665 45.396C88.6025 45.396 88.5705 45.428 88.5705 45.492V49.296C88.5705 49.672 88.6345 49.924 88.7625 50.052C88.8905 50.18 89.0825 50.244 89.3385 50.244H90.1665C90.2065 50.244 90.2385 50.256 90.2625 50.28C90.2865 50.296 90.2985 50.328 90.2985 50.376L90.2865 50.784C90.2865 50.864 90.2385 50.916 90.1425 50.94C90.0625 50.956 89.9465 50.968 89.7945 50.976C89.6505 50.984 89.5065 50.992 89.3625 51C89.2265 51 89.1105 51 89.0145 51C88.5105 51 88.1425 50.884 87.9105 50.652C87.6785 50.412 87.5625 50.036 87.5625 49.524V45.516C87.5625 45.436 87.5225 45.396 87.4425 45.396H86.4825C86.3945 45.396 86.3505 45.352 86.3505 45.264V44.76C86.3505 44.68 86.3905 44.64 86.4705 44.64H87.4905C87.5465 44.64 87.5745 44.608 87.5745 44.544L87.7065 42.636C87.7145 42.532 87.7585 42.48 87.8385 42.48H88.4385C88.5345 42.48 88.5825 42.536 88.5825 42.648V44.544C88.5825 44.608 88.6145 44.64 88.6785 44.64H90.1905C90.2785 44.64 90.3225 44.676 90.3225 44.748V45.264C90.3225 45.352 90.2785 45.396 90.1905 45.396H88.6665ZM94.4335 42.264C94.4335 42.152 94.4815 42.096 94.5775 42.096H95.4415C95.5375 42.096 95.5855 42.148 95.5855 42.252V49.992C95.5855 50.072 95.6255 50.112 95.7055 50.112H99.8575C99.9535 50.112 100.002 50.152 100.002 50.232V50.868C100.002 50.908 99.9895 50.94 99.9655 50.964C99.9415 50.988 99.9055 51 99.8575 51H94.6015C94.5375 51 94.4935 50.988 94.4695 50.964C94.4455 50.932 94.4335 50.888 94.4335 50.832V42.264ZM105.072 50.232C104.776 50.52 104.452 50.74 104.1 50.892C103.756 51.044 103.368 51.12 102.936 51.12C102.312 51.12 101.82 50.96 101.46 50.64C101.108 50.32 100.932 49.9 100.932 49.38C100.932 48.956 101.052 48.592 101.292 48.288C101.532 47.976 101.888 47.732 102.36 47.556C102.832 47.372 103.412 47.26 104.1 47.22L105.036 47.148C105.084 47.14 105.128 47.124 105.168 47.1C105.208 47.076 105.228 47.032 105.228 46.968V46.644C105.228 46.212 105.092 45.872 104.82 45.624C104.556 45.368 104.196 45.24 103.74 45.24C103.388 45.24 103.068 45.32 102.78 45.48C102.5 45.64 102.248 45.88 102.024 46.2C101.992 46.24 101.964 46.268 101.94 46.284C101.924 46.292 101.892 46.288 101.844 46.272L101.196 46.056C101.172 46.04 101.152 46.02 101.136 45.996C101.128 45.972 101.14 45.928 101.172 45.864C101.412 45.448 101.748 45.12 102.18 44.88C102.62 44.64 103.156 44.52 103.788 44.52C104.324 44.52 104.768 44.604 105.12 44.772C105.48 44.932 105.748 45.168 105.924 45.48C106.108 45.784 106.2 46.148 106.2 46.572V50.82C106.2 50.892 106.188 50.94 106.164 50.964C106.14 50.988 106.1 51 106.044 51H105.432C105.376 51 105.336 50.984 105.312 50.952C105.288 50.912 105.272 50.864 105.264 50.808L105.252 50.256C105.228 50.144 105.168 50.136 105.072 50.232ZM105.228 47.952C105.228 47.816 105.172 47.752 105.06 47.76L104.268 47.832C103.9 47.848 103.572 47.896 103.284 47.976C102.996 48.048 102.752 48.144 102.552 48.264C102.352 48.384 102.2 48.528 102.096 48.696C101.992 48.856 101.94 49.044 101.94 49.26C101.94 49.612 102.06 49.888 102.3 50.088C102.548 50.28 102.88 50.376 103.296 50.376C103.552 50.376 103.796 50.332 104.028 50.244C104.268 50.148 104.476 50.028 104.652 49.884C104.836 49.732 104.976 49.576 105.072 49.416C105.176 49.256 105.228 49.1 105.228 48.948V47.952ZM110.627 44.52C111.043 44.52 111.407 44.588 111.719 44.724C112.039 44.852 112.311 45.032 112.535 45.264C112.767 45.488 112.959 45.736 113.111 46.008C113.159 46.104 113.139 46.164 113.051 46.188L112.391 46.344C112.335 46.368 112.283 46.344 112.235 46.272C112.075 46.04 111.915 45.852 111.755 45.708C111.603 45.564 111.439 45.456 111.263 45.384C111.087 45.304 110.895 45.264 110.687 45.264C110.279 45.264 109.919 45.368 109.607 45.576C109.303 45.776 109.067 46.068 108.899 46.452C108.731 46.836 108.646 47.292 108.646 47.82C108.646 48.356 108.731 48.816 108.899 49.2C109.075 49.584 109.315 49.876 109.619 50.076C109.931 50.276 110.295 50.376 110.711 50.376C111.095 50.376 111.427 50.28 111.707 50.088C111.987 49.896 112.243 49.616 112.475 49.248C112.499 49.208 112.519 49.188 112.535 49.188C112.559 49.18 112.591 49.184 112.631 49.2L113.147 49.392C113.203 49.416 113.219 49.468 113.195 49.548C113.075 49.756 112.935 49.956 112.775 50.148C112.615 50.34 112.427 50.508 112.211 50.652C112.003 50.796 111.767 50.912 111.503 51C111.239 51.08 110.947 51.12 110.627 51.12C110.035 51.12 109.511 50.984 109.055 50.712C108.607 50.432 108.255 50.048 107.999 49.56C107.743 49.064 107.615 48.492 107.615 47.844C107.615 47.188 107.743 46.612 107.999 46.116C108.263 45.62 108.619 45.232 109.067 44.952C109.523 44.664 110.043 44.52 110.627 44.52ZM117.072 51.12C116.472 51.12 115.94 50.984 115.476 50.712C115.02 50.432 114.664 50.048 114.408 49.56C114.16 49.064 114.036 48.496 114.036 47.856C114.036 47.192 114.164 46.612 114.42 46.116C114.684 45.612 115.044 45.22 115.5 44.94C115.956 44.66 116.484 44.52 117.084 44.52C117.692 44.52 118.22 44.664 118.668 44.952C119.124 45.232 119.476 45.624 119.724 46.128C119.98 46.624 120.108 47.196 120.108 47.844C120.108 48.484 119.98 49.052 119.724 49.548C119.468 50.036 119.112 50.42 118.656 50.7C118.208 50.98 117.68 51.12 117.072 51.12ZM117.096 50.364C117.512 50.364 117.868 50.264 118.164 50.064C118.46 49.856 118.684 49.564 118.836 49.188C118.996 48.804 119.076 48.348 119.076 47.82C119.076 47.292 118.996 46.84 118.836 46.464C118.676 46.08 118.448 45.784 118.152 45.576C117.856 45.368 117.5 45.264 117.084 45.264C116.676 45.264 116.32 45.368 116.016 45.576C115.712 45.784 115.476 46.08 115.308 46.464C115.148 46.84 115.068 47.292 115.068 47.82C115.068 48.34 115.148 48.792 115.308 49.176C115.476 49.56 115.712 49.856 116.016 50.064C116.32 50.264 116.68 50.364 117.096 50.364ZM125.408 46.044C125.248 45.804 125.024 45.608 124.736 45.456C124.448 45.304 124.104 45.228 123.704 45.228C123.272 45.228 122.912 45.32 122.624 45.504C122.344 45.688 122.204 45.936 122.204 46.248C122.204 46.416 122.268 46.576 122.396 46.728C122.524 46.872 122.784 47.008 123.176 47.136L124.7 47.592C125.252 47.744 125.648 47.964 125.888 48.252C126.136 48.54 126.26 48.872 126.26 49.248C126.26 49.624 126.148 49.952 125.924 50.232C125.7 50.512 125.392 50.732 125 50.892C124.608 51.044 124.164 51.12 123.668 51.12C123.036 51.12 122.484 50.996 122.012 50.748C121.54 50.492 121.204 50.176 121.004 49.8C120.98 49.76 120.968 49.724 120.968 49.692C120.968 49.66 120.988 49.632 121.028 49.608L121.496 49.344C121.536 49.32 121.572 49.312 121.604 49.32C121.636 49.32 121.66 49.332 121.676 49.356C121.812 49.564 121.968 49.744 122.144 49.896C122.328 50.048 122.544 50.168 122.792 50.256C123.048 50.344 123.344 50.388 123.68 50.388C123.984 50.38 124.26 50.336 124.508 50.256C124.756 50.176 124.952 50.06 125.096 49.908C125.24 49.748 125.312 49.564 125.312 49.356C125.312 49.14 125.224 48.956 125.048 48.804C124.872 48.644 124.568 48.504 124.136 48.384L122.9 48.036C122.3 47.876 121.876 47.66 121.628 47.388C121.388 47.116 121.264 46.796 121.256 46.428C121.256 46.044 121.36 45.712 121.568 45.432C121.776 45.144 122.064 44.92 122.432 44.76C122.808 44.6 123.236 44.52 123.716 44.52C124.252 44.52 124.728 44.624 125.144 44.832C125.568 45.032 125.888 45.3 126.104 45.636C126.128 45.668 126.14 45.7 126.14 45.732C126.14 45.756 126.124 45.78 126.092 45.804L125.588 46.08C125.556 46.096 125.524 46.104 125.492 46.104C125.468 46.096 125.44 46.076 125.408 46.044ZM129.26 45.396C129.196 45.396 129.164 45.428 129.164 45.492V49.296C129.164 49.672 129.228 49.924 129.356 50.052C129.484 50.18 129.676 50.244 129.932 50.244H130.76C130.8 50.244 130.832 50.256 130.856 50.28C130.88 50.296 130.892 50.328 130.892 50.376L130.88 50.784C130.88 50.864 130.832 50.916 130.736 50.94C130.656 50.956 130.54 50.968 130.388 50.976C130.244 50.984 130.1 50.992 129.956 51C129.82 51 129.704 51 129.608 51C129.104 51 128.736 50.884 128.504 50.652C128.272 50.412 128.156 50.036 128.156 49.524V45.516C128.156 45.436 128.116 45.396 128.036 45.396H127.076C126.988 45.396 126.944 45.352 126.944 45.264V44.76C126.944 44.68 126.984 44.64 127.064 44.64H128.084C128.14 44.64 128.168 44.608 128.168 44.544L128.3 42.636C128.308 42.532 128.352 42.48 128.432 42.48H129.032C129.128 42.48 129.176 42.536 129.176 42.648V44.544C129.176 44.608 129.208 44.64 129.272 44.64H130.784C130.872 44.64 130.916 44.676 130.916 44.748V45.264C130.916 45.352 130.872 45.396 130.784 45.396H129.26ZM132.741 48.216C132.741 48.608 132.833 48.968 133.017 49.296C133.209 49.616 133.461 49.872 133.773 50.064C134.093 50.256 134.449 50.352 134.841 50.352C135.241 50.352 135.597 50.272 135.909 50.112C136.221 49.944 136.489 49.692 136.713 49.356C136.745 49.324 136.769 49.308 136.785 49.308C136.809 49.3 136.841 49.304 136.881 49.32L137.385 49.572C137.457 49.612 137.465 49.668 137.409 49.74C137.193 50.06 136.953 50.324 136.689 50.532C136.433 50.732 136.145 50.88 135.825 50.976C135.505 51.072 135.145 51.12 134.745 51.12C134.153 51.12 133.629 50.984 133.173 50.712C132.717 50.44 132.357 50.06 132.093 49.572C131.829 49.084 131.697 48.52 131.697 47.88C131.697 47.184 131.829 46.588 132.093 46.092C132.365 45.588 132.729 45.2 133.185 44.928C133.649 44.656 134.165 44.52 134.733 44.52C135.317 44.52 135.825 44.648 136.257 44.904C136.689 45.16 137.025 45.532 137.265 46.02C137.505 46.508 137.625 47.096 137.625 47.784C137.625 47.84 137.617 47.896 137.601 47.952C137.593 48.008 137.541 48.036 137.445 48.036H132.849C132.817 48.036 132.789 48.056 132.765 48.096C132.749 48.128 132.741 48.168 132.741 48.216ZM136.413 47.376C136.501 47.376 136.557 47.368 136.581 47.352C136.605 47.328 136.617 47.28 136.617 47.208C136.617 46.864 136.541 46.544 136.389 46.248C136.245 45.944 136.033 45.7 135.753 45.516C135.481 45.332 135.149 45.24 134.757 45.24C134.325 45.24 133.961 45.344 133.665 45.552C133.369 45.752 133.145 46.016 132.993 46.344C132.841 46.672 132.765 47.016 132.765 47.376H136.413Z" fill="#26292F"/>
</svg>
